<?xml version="1.0" encoding="utf-8"?>
<!-- Generator: Adobe Illustrator 15.0.2, SVG Export Plug-In . SVG Version: 6.00 Build 0)  -->
<!DOCTYPE svg PUBLIC "-//W3C//DTD SVG 1.1//EN" "http://www.w3.org/Graphics/SVG/1.1/DTD/svg11.dtd">
<svg version="1.1" id="Layer_1" xmlns="http://www.w3.org/2000/svg" xmlns:xlink="http://www.w3.org/1999/xlink" x="0px" y="0px"
	 width="300px" height="190.5px" viewBox="0 0 300 190.5" enable-background="new 0 0 300 190.5" xml:space="preserve">
<g id="Layer_2">
</g>
<g id="Layer_1_1_">
	<g>
		<rect x="177.885" y="113.348" fill="#ECB429" width="7.08" height="17.021"/>
		<rect x="9.209" y="124.002" fill="#ECB429" width="137.108" height="6.366"/>
	</g>
	<polyline fill="#ECB429" points="80.216,108.029 80.216,115.034 142.784,99.361 205.659,115.034 205.659,108.029 142.784,92.3 
		80.216,108.029 	"/>
	<g>
		<path d="M195.664,49.17c0-3.468,3.529-5.385,4.852-5.385v26.264l-10.291,14.898h11.662l34.693-50.67h-11.135l-15.18,21.713V34.277
			h-9.218c0,0-3.229,0-5.683,2.749v-2.749h-8.909v39.059h9.207L195.664,49.17"/>
		<path d="M253.812,68.701c-4.223-5.041-10.72-7.864-17.763-7.864c-12.216,0-22.261,7.357-22.261,24.11h11.656
			c0-8.381,4.919-12.451,10.604-12.451c5.379,0,9.742,4.613,9.742,10.054c0,5.683-4.363,9.992-4.363,9.992l-26.568,26.556v11.963
			h44.451v-12.736H233.05l13.28-13.284c0,0,12.447-10.288,12.447-21.953c0-3.563-0.706-6.921-1.965-9.721l-0.035-0.029h6.359v57.724
			h12.447V60.596h-21.773v8.105"/>
		<path d="M285.915,130.564c-3.198,0-5.541-2.492-5.541-5.713c0-3.187,2.343-5.675,5.541-5.675c3.185,0,5.501,2.488,5.501,5.675
			C291.416,128.072,289.098,130.564,285.915,130.564 M285.915,118.309c-3.625,0-6.573,2.94-6.573,6.545
			c0,3.633,2.948,6.572,6.573,6.572s6.545-2.939,6.545-6.572C292.459,121.249,289.54,118.309,285.915,118.309z"/>
		<path d="M285.741,124.434h-1.365v-2.424h2.095c0.903,0,1.838-0.027,1.838,1.108C288.309,124.609,286.779,124.434,285.741,124.434
			 M289.271,123.145c0-1.222-0.658-1.944-2.592-1.944h-3.205v7.321h0.9v-3.371h1.645l2.098,3.371h1.07l-2.215-3.371
			C288.266,125.109,289.271,124.574,289.271,123.145z"/>
		<path d="M85.058,42.956c1.677,0,3.294,0.297,4.61,1.072L73.997,57.607c-0.301-1.076-0.542-2.149-0.542-3.526
			C73.696,47.854,78.841,42.956,85.058,42.956 M75.31,74.416c0.489-0.631,0.878-1.173,1.264-1.688l0.038,0.039
			c2.58,1.205,5.447,1.888,8.447,1.888c4.069,0,7.899-1.076,10.892-3.23V60.837c-2.754,3.291-6.823,4.903-10.892,4.903
			c-1.613,0-3.23-0.297-4.604-1.079l18.724-16.028v24.703h9.448V50.55c0-4.313,3.535-7.594,7.604-7.594
			c4.364,0,7.594,3.281,7.594,7.594v22.786h8.974V48.633c0-1.695-0.307-3.327-0.86-4.848h4.628v29.551h9.512V43.785h2.99
			l0.241,15.736c0,7.836,6.217,14.355,14.355,14.355c3.824,0,7.294-1.38,10.056-3.827v3.287h9.204V34.277h-9.204v23.33
			c0,4.309-3.832,7.836-7.902,7.836c-4.063,0-7.533-3.527-7.533-7.836v-23.33H146.08V22.614h-9.512v11.664h-5.148v8.29
			c-2.314-4.862-7.301-8.29-12.979-8.29c-3.826,0-7.057,1.376-9.813,4.068v-4.068H98.88v5.441
			c-3.531-3.531-8.376-5.682-13.822-5.682c-11.062,0-20.277,9.217-20.277,20.342c0,3.292,0.815,6.423,2.258,9.195
			c-4.61,5.375-11.475,8.691-19.065,8.691c-13.821,0-25.484-11.667-25.484-25.783c0-14.059,11.663-25.722,25.484-25.722
			c7.833,0,15.432,4.065,19.5,9.751h15.429c-0.237-0.538-0.538-1.08-0.839-1.376c-1.611-3.534-4-7.062-6.755-9.754
			c-15.135-15.192-39.837-15.192-54.732,0c-15.194,14.897-15.194,39.603,0,54.732C35.473,89.312,60.175,89.312,75.31,74.416z"/>
	</g>
</g>
<text transform="matrix(0.9539 0 0 1 6.1816 175.5)" font-family="'Arial-Black'" font-size="48">Roy B. Hull</text>
</svg>
