<?xml version="1.0" encoding="utf-8"?>
<!-- Generator: Adobe Illustrator 15.0.2, SVG Export Plug-In . SVG Version: 6.00 Build 0)  -->
<!DOCTYPE svg PUBLIC "-//W3C//DTD SVG 1.1//EN" "http://www.w3.org/Graphics/SVG/1.1/DTD/svg11.dtd">
<svg version="1.1" id="Layer_1" xmlns="http://www.w3.org/2000/svg" xmlns:xlink="http://www.w3.org/1999/xlink" x="0px" y="0px"
	 width="298.158px" height="161.875px" viewBox="0 0 298.158 161.875" enable-background="new 0 0 298.158 161.875"
	 xml:space="preserve">
<g id="Layer_2">
</g>
<g id="Layer_1_1_">
	<g>
		<rect x="177.064" y="108.348" fill="#ECB429" width="7.08" height="17.021"/>
		<rect x="8.388" y="119.002" fill="#ECB429" width="137.108" height="6.366"/>
	</g>
	<polyline fill="#ECB429" points="79.395,103.029 79.395,110.034 141.963,94.361 204.838,110.034 204.838,103.029 141.963,87.3 
		79.395,103.029 	"/>
	<g>
		<path d="M194.844,44.17c0-3.468,3.529-5.385,4.852-5.385v26.264l-10.291,14.898h11.662l34.693-50.67h-11.135l-15.18,21.713V29.277
			h-9.219c0,0-3.229,0-5.685,2.749v-2.749h-8.908v39.059h9.207L194.844,44.17"/>
		<path d="M252.992,63.701c-4.225-5.041-10.721-7.864-17.764-7.864c-12.217,0-22.263,7.357-22.263,24.11h11.656
			c0-8.381,4.92-12.451,10.604-12.451c5.379,0,9.741,4.613,9.741,10.054c0,5.683-4.362,9.992-4.362,9.992l-26.566,26.556v11.963
			h44.451v-12.734h-26.262l13.28-13.284c0,0,12.447-10.288,12.447-21.953c0-3.563-0.707-6.921-1.965-9.721l-0.035-0.029h6.358
			v57.726h12.445V55.596h-21.77v8.105"/>
		<path d="M285.094,125.564c-3.197,0-5.541-2.492-5.541-5.713c0-3.188,2.344-5.677,5.541-5.677c3.186,0,5.502,2.488,5.502,5.677
			C290.596,123.072,288.277,125.564,285.094,125.564 M285.094,113.309c-3.625,0-6.572,2.94-6.572,6.545
			c0,3.633,2.947,6.572,6.572,6.572s6.545-2.939,6.545-6.572C291.639,116.249,288.719,113.309,285.094,113.309z"/>
		<path d="M284.92,119.434h-1.365v-2.424h2.096c0.902,0,1.839-0.027,1.839,1.108C287.488,119.609,285.959,119.434,284.92,119.434
			 M288.451,118.145c0-1.222-0.658-1.942-2.592-1.942h-3.205v7.319h0.897v-3.371h1.646l2.098,3.371h1.07l-2.216-3.371
			C287.445,120.109,288.451,119.574,288.451,118.145z"/>
		<path d="M84.238,37.956c1.677,0,3.294,0.297,4.609,1.072L73.176,52.607c-0.301-1.076-0.542-2.149-0.542-3.526
			C72.875,42.854,78.02,37.956,84.238,37.956 M74.49,69.416c0.488-0.631,0.878-1.173,1.264-1.688l0.038,0.039
			c2.58,1.205,5.447,1.888,8.447,1.888c4.068,0,7.898-1.076,10.892-3.23V55.837c-2.754,3.291-6.823,4.903-10.892,4.903
			c-1.613,0-3.23-0.297-4.604-1.079L98.36,43.633v24.703h9.447V45.55c0-4.313,3.535-7.594,7.604-7.594
			c4.364,0,7.594,3.281,7.594,7.594v22.786h8.974V43.633c0-1.695-0.307-3.327-0.859-4.848h4.628v29.551h9.512V38.785h2.99
			l0.241,15.736c0,7.836,6.217,14.355,14.354,14.355c3.823,0,7.295-1.38,10.057-3.827v3.287h9.203V29.277H172.9v23.33
			c0,4.309-3.832,7.836-7.902,7.836c-4.062,0-7.533-3.527-7.533-7.836v-23.33h-12.206V17.614h-9.512v11.664h-5.148v8.29
			c-2.313-4.862-7.301-8.29-12.979-8.29c-3.826,0-7.058,1.376-9.813,4.068v-4.068h-9.748v5.441
			c-3.53-3.531-8.376-5.682-13.821-5.682c-11.062,0-20.277,9.217-20.277,20.342c0,3.292,0.815,6.423,2.258,9.195
			c-4.609,5.375-11.475,8.691-19.064,8.691c-13.821,0-25.484-11.667-25.484-25.783c0-14.059,11.663-25.722,25.484-25.722
			c7.833,0,15.432,4.065,19.5,9.751h15.429c-0.237-0.538-0.538-1.08-0.839-1.376c-1.611-3.534-4-7.062-6.755-9.754
			c-15.136-15.192-39.837-15.192-54.732,0c-15.194,14.897-15.194,39.603,0,54.732C34.653,84.312,59.354,84.312,74.49,69.416z"/>
	</g>
</g>
<g>
	<path d="M71.179,156.875l-6.552-10.188h-3.168v10.188h-2.952v-23.76h7.236c0.72,0,1.355,0.03,1.908,0.09
		c0.552,0.061,1.044,0.156,1.476,0.288s0.828,0.312,1.188,0.54c0.36,0.229,0.708,0.51,1.044,0.846
		c0.576,0.553,1.032,1.236,1.368,2.052c0.336,0.816,0.504,1.681,0.504,2.593c0,0.936-0.18,1.836-0.54,2.699
		c-0.36,0.864-0.876,1.608-1.548,2.232c-0.48,0.48-0.978,0.853-1.494,1.116s-1.218,0.492-2.106,0.684l7.02,10.62H71.179z
		 M70.063,139.559c0-1.487-0.432-2.579-1.296-3.275c-0.192-0.145-0.378-0.258-0.558-0.342s-0.396-0.156-0.648-0.217
		c-0.252-0.06-0.558-0.096-0.918-0.107s-0.804-0.019-1.332-0.019h-3.852v8.604h3.852C68.479,144.203,70.063,142.655,70.063,139.559z
		"/>
	<path d="M96.997,146.975c0,1.5-0.245,2.876-0.735,4.125c-0.49,1.251-1.18,2.336-2.07,3.256c-0.89,0.92-1.94,1.635-3.15,2.145
		c-1.21,0.51-2.535,0.765-3.975,0.765s-2.771-0.255-3.99-0.765c-1.22-0.51-2.271-1.225-3.15-2.145c-0.88-0.92-1.57-2.005-2.07-3.256
		c-0.5-1.249-0.75-2.625-0.75-4.125c0-1.479,0.25-2.85,0.75-4.109c0.5-1.26,1.189-2.345,2.07-3.255c0.88-0.91,1.93-1.62,3.15-2.13
		c1.219-0.511,2.55-0.766,3.99-0.766s2.765,0.255,3.975,0.766c1.21,0.51,2.26,1.22,3.15,2.13c0.89,0.91,1.58,1.995,2.07,3.255
		S96.997,145.495,96.997,146.975z M94.297,146.975c0-1.1-0.19-2.145-0.57-3.135c-0.38-0.99-0.9-1.85-1.56-2.58
		c-0.66-0.729-1.43-1.31-2.31-1.74c-0.88-0.43-1.811-0.645-2.79-0.645c-1,0-1.94,0.215-2.82,0.645c-0.88,0.431-1.65,1.011-2.31,1.74
		c-0.66,0.73-1.18,1.59-1.56,2.58c-0.38,0.99-0.57,2.035-0.57,3.135c0,1.121,0.189,2.176,0.57,3.165c0.38,0.99,0.9,1.851,1.56,2.58
		c0.66,0.73,1.43,1.311,2.31,1.74c0.88,0.431,1.819,0.646,2.82,0.646c0.979,0,1.91-0.215,2.79-0.646c0.88-0.43,1.65-1.01,2.31-1.74
		c0.66-0.729,1.18-1.59,1.56-2.58C94.106,149.15,94.297,148.096,94.297,146.975z"/>
	<path d="M107.796,147.635v9.24h-2.46v-9.06l-6.6-10.74h2.64l5.31,8.49l5.46-8.49h2.61L107.796,147.635z"/>
	<path d="M143.148,150.539c0,0.936-0.156,1.794-0.468,2.574c-0.312,0.78-0.75,1.452-1.314,2.016
		c-0.564,0.564-1.242,0.996-2.034,1.296c-0.792,0.301-1.668,0.45-2.628,0.45h-8.784v-23.76h7.704c1.152,0,2.082,0.107,2.79,0.324
		c0.708,0.216,1.362,0.6,1.962,1.151c0.576,0.553,1.032,1.206,1.368,1.962c0.336,0.756,0.504,1.555,0.504,2.395
		c0,1.296-0.36,2.424-1.08,3.384c-0.72,0.96-1.716,1.656-2.988,2.088c1.584,0.312,2.808,0.996,3.672,2.052
		C142.716,147.527,143.148,148.883,143.148,150.539z M139.116,139.199c0-1.176-0.324-2.088-0.972-2.736
		c-0.312-0.336-0.696-0.563-1.152-0.684c-0.456-0.12-1.14-0.181-2.052-0.181h-4.068v7.704h3.852c0.432,0,0.804-0.018,1.116-0.054
		c0.312-0.036,0.594-0.096,0.846-0.18s0.48-0.192,0.684-0.324c0.204-0.132,0.401-0.294,0.594-0.486
		C138.732,141.491,139.116,140.472,139.116,139.199z M140.016,150.323c0-1.392-0.438-2.46-1.314-3.204
		c-0.876-0.744-2.13-1.116-3.762-1.116h-4.068v8.388h4.068c1.08,0,1.884-0.065,2.412-0.197c0.528-0.132,0.996-0.366,1.404-0.702
		c0.384-0.336,0.69-0.792,0.918-1.368C139.902,151.547,140.016,150.947,140.016,150.323z"/>
	<path d="M151.823,155.255c0,0.576-0.197,1.062-0.594,1.458c-0.396,0.396-0.869,0.594-1.422,0.594c-0.576,0-1.062-0.197-1.457-0.594
		c-0.396-0.396-0.595-0.882-0.595-1.458c0-0.552,0.198-1.026,0.595-1.422c0.396-0.396,0.881-0.594,1.457-0.594
		c0.553,0,1.026,0.197,1.422,0.594C151.626,154.229,151.823,154.703,151.823,155.255z"/>
	<path d="M184.188,156.875v-10.872h-14.004v10.872h-2.952v-23.76h2.952v10.188h14.004v-10.188h2.952v23.76H184.188z"/>
	<path d="M209.304,150.095c0,1.32-0.176,2.4-0.525,3.24s-0.935,1.601-1.755,2.28c-1.5,1.22-3.311,1.83-5.43,1.83
		c-2.141,0-3.96-0.61-5.46-1.83c-0.84-0.68-1.436-1.445-1.785-2.295c-0.351-0.851-0.525-1.925-0.525-3.226v-13.02h2.46v12.27
		c0,0.62,0.016,1.136,0.045,1.545c0.03,0.41,0.085,0.771,0.165,1.08c0.08,0.311,0.195,0.585,0.346,0.825
		c0.149,0.24,0.345,0.49,0.585,0.75c1.02,1.14,2.399,1.71,4.14,1.71s3.12-0.57,4.14-1.71c0.24-0.26,0.436-0.51,0.585-0.75
		c0.15-0.24,0.266-0.515,0.346-0.825c0.079-0.31,0.135-0.67,0.165-1.08c0.029-0.409,0.045-0.925,0.045-1.545v-12.27h2.46V150.095z"
		/>
	<path d="M215.333,156.875v-19.8h2.461v17.729h8.85v2.07H215.333z"/>
	<path d="M230.183,156.875v-19.8h2.461v17.729h8.85v2.07H230.183z"/>
</g>
</svg>
