<?xml version="1.0" encoding="utf-8"?>
<!-- Generator: Adobe Illustrator 15.0.2, SVG Export Plug-In . SVG Version: 6.00 Build 0)  -->
<!DOCTYPE svg PUBLIC "-//W3C//DTD SVG 1.1//EN" "http://www.w3.org/Graphics/SVG/1.1/DTD/svg11.dtd">
<svg version="1.1" id="Layer_1" xmlns="http://www.w3.org/2000/svg" xmlns:xlink="http://www.w3.org/1999/xlink" x="0px" y="0px"
	 width="298.158px" height="161.875px" viewBox="0 0 298.158 161.875" enable-background="new 0 0 298.158 161.875"
	 xml:space="preserve">
<g id="Layer_2">
</g>
<g id="Layer_1_1_">
	<g>
		<rect x="177.063" y="108.348" fill="#ECB429" width="7.08" height="17.021"/>
		<rect x="8.388" y="119.002" fill="#ECB429" width="137.108" height="6.366"/>
	</g>
	<polyline fill="#ECB429" points="79.395,103.029 79.395,110.034 141.963,94.361 204.838,110.034 204.838,103.029 141.963,87.3 
		79.395,103.029 	"/>
	<g>
		<path fill="#FFFFFF" d="M194.844,44.17c0-3.468,3.529-5.385,4.853-5.385v26.264l-10.291,14.898h11.662l34.692-50.67h-11.135
			L209.444,50.99V29.277h-9.219c0,0-3.229,0-5.685,2.749v-2.749h-8.908v39.059h9.207L194.844,44.17"/>
		<path fill="#FFFFFF" d="M252.992,63.701c-4.226-5.041-10.722-7.864-17.765-7.864c-12.217,0-22.263,7.357-22.263,24.11h11.656
			c0-8.381,4.92-12.451,10.604-12.451c5.379,0,9.74,4.613,9.74,10.054c0,5.683-4.361,9.992-4.361,9.992l-26.566,26.556v11.963
			h44.451v-12.733h-26.262l13.279-13.284c0,0,12.447-10.288,12.447-21.953c0-3.563-0.707-6.921-1.965-9.721l-0.035-0.029h6.357
			v57.727h12.445v-70.47h-21.77v8.105"/>
		<path fill="#FFFFFF" d="M285.094,125.564c-3.196,0-5.54-2.492-5.54-5.713c0-3.188,2.344-5.678,5.54-5.678
			c3.187,0,5.503,2.488,5.503,5.678C290.597,123.072,288.276,125.564,285.094,125.564 M285.094,113.309
			c-3.625,0-6.571,2.94-6.571,6.545c0,3.633,2.946,6.572,6.571,6.572s6.546-2.939,6.546-6.572
			C291.64,116.249,288.719,113.309,285.094,113.309z"/>
		<path fill="#FFFFFF" d="M284.92,119.434h-1.364v-2.424h2.096c0.902,0,1.839-0.027,1.839,1.108
			C287.487,119.609,285.959,119.434,284.92,119.434 M288.451,118.145c0-1.222-0.658-1.941-2.593-1.941h-3.205v7.318h0.897v-3.371
			h1.646l2.099,3.371h1.07l-2.216-3.371C287.444,120.109,288.451,119.574,288.451,118.145z"/>
		<path fill="#FFFFFF" d="M84.238,37.956c1.677,0,3.294,0.297,4.609,1.072L73.176,52.607c-0.301-1.076-0.542-2.149-0.542-3.526
			C72.875,42.854,78.02,37.956,84.238,37.956 M74.49,69.416c0.488-0.631,0.878-1.173,1.264-1.688l0.038,0.039
			c2.58,1.205,5.447,1.888,8.447,1.888c4.068,0,7.898-1.076,10.892-3.23V55.837c-2.754,3.291-6.823,4.903-10.892,4.903
			c-1.613,0-3.23-0.297-4.604-1.079L98.36,43.633v24.703h9.447V45.55c0-4.313,3.535-7.594,7.604-7.594
			c4.364,0,7.594,3.281,7.594,7.594v22.786h8.974V43.633c0-1.695-0.307-3.327-0.859-4.848h4.628v29.551h9.512V38.785h2.99
			l0.241,15.736c0,7.836,6.217,14.355,14.354,14.355c3.823,0,7.295-1.38,10.057-3.827v3.287h9.203V29.277h-9.205v23.33
			c0,4.309-3.832,7.836-7.901,7.836c-4.062,0-7.533-3.527-7.533-7.836v-23.33h-12.206V17.614h-9.512v11.664h-5.148v8.29
			c-2.313-4.862-7.301-8.29-12.979-8.29c-3.826,0-7.058,1.376-9.813,4.068v-4.068h-9.748v5.441
			c-3.53-3.531-8.376-5.682-13.821-5.682c-11.062,0-20.277,9.217-20.277,20.342c0,3.292,0.815,6.423,2.258,9.195
			c-4.609,5.375-11.475,8.691-19.064,8.691c-13.821,0-25.484-11.667-25.484-25.783c0-14.059,11.663-25.722,25.484-25.722
			c7.833,0,15.432,4.065,19.5,9.751h15.429c-0.237-0.538-0.538-1.08-0.839-1.376c-1.611-3.534-4-7.062-6.755-9.754
			c-15.136-15.192-39.837-15.192-54.732,0c-15.194,14.897-15.194,39.603,0,54.732C34.653,84.312,59.354,84.312,74.49,69.416z"/>
	</g>
</g>
<g>
	<path fill="#FFFFFF" d="M71.179,156.875l-6.552-10.188h-3.168v10.188h-2.952v-23.76h7.236c0.72,0,1.355,0.029,1.908,0.09
		c0.552,0.061,1.044,0.156,1.476,0.288s0.828,0.312,1.188,0.54s0.708,0.51,1.044,0.846c0.576,0.553,1.032,1.236,1.368,2.053
		c0.336,0.815,0.504,1.68,0.504,2.592c0,0.937-0.18,1.836-0.54,2.699c-0.36,0.864-0.876,1.608-1.548,2.232
		c-0.48,0.48-0.978,0.854-1.494,1.115c-0.516,0.264-1.218,0.492-2.106,0.685l7.02,10.62H71.179L71.179,156.875z M70.063,139.559
		c0-1.486-0.432-2.578-1.296-3.274c-0.192-0.146-0.378-0.259-0.558-0.343s-0.396-0.155-0.648-0.217
		c-0.252-0.06-0.558-0.096-0.918-0.106s-0.804-0.019-1.332-0.019h-3.852v8.604h3.852C68.479,144.203,70.063,142.654,70.063,139.559z
		"/>
	<path fill="#FFFFFF" d="M96.997,146.975c0,1.5-0.245,2.877-0.735,4.125c-0.49,1.252-1.18,2.336-2.07,3.256s-1.94,1.636-3.15,2.146
		c-1.21,0.511-2.535,0.765-3.975,0.765s-2.771-0.254-3.99-0.765c-1.22-0.51-2.271-1.226-3.15-2.146
		c-0.88-0.92-1.57-2.004-2.07-3.256c-0.5-1.248-0.75-2.625-0.75-4.125c0-1.479,0.25-2.85,0.75-4.108
		c0.5-1.261,1.189-2.345,2.07-3.255c0.88-0.91,1.93-1.62,3.15-2.131c1.219-0.51,2.55-0.766,3.99-0.766s2.765,0.256,3.975,0.766
		c1.21,0.511,2.26,1.221,3.15,2.131s1.58,1.994,2.07,3.255C96.752,144.126,96.997,145.495,96.997,146.975z M94.297,146.975
		c0-1.1-0.19-2.145-0.57-3.135s-0.9-1.85-1.56-2.58c-0.66-0.729-1.43-1.31-2.31-1.74c-0.88-0.43-1.811-0.645-2.79-0.645
		c-1,0-1.94,0.215-2.82,0.645c-0.88,0.432-1.65,1.012-2.31,1.74c-0.66,0.73-1.18,1.59-1.56,2.58s-0.57,2.035-0.57,3.135
		c0,1.121,0.189,2.176,0.57,3.166c0.38,0.989,0.9,1.851,1.56,2.58s1.43,1.311,2.31,1.739c0.88,0.431,1.819,0.646,2.82,0.646
		c0.979,0,1.91-0.215,2.79-0.646s1.65-1.01,2.31-1.739s1.18-1.591,1.56-2.58C94.106,149.15,94.297,148.096,94.297,146.975z"/>
	<path fill="#FFFFFF" d="M107.796,147.635v9.24h-2.46v-9.061l-6.6-10.739h2.64l5.31,8.489l5.46-8.489h2.61L107.796,147.635z"/>
	<path fill="#FFFFFF" d="M143.148,150.539c0,0.936-0.156,1.794-0.468,2.574c-0.312,0.779-0.75,1.451-1.314,2.016
		c-0.564,0.564-1.242,0.996-2.034,1.296c-0.792,0.302-1.668,0.45-2.628,0.45h-8.784v-23.76h7.704c1.152,0,2.082,0.107,2.79,0.324
		c0.708,0.216,1.362,0.6,1.962,1.15c0.576,0.553,1.032,1.206,1.368,1.963c0.336,0.756,0.504,1.555,0.504,2.395
		c0,1.296-0.36,2.424-1.08,3.384s-1.716,1.655-2.988,2.088c1.584,0.312,2.808,0.996,3.672,2.052
		C142.716,147.527,143.148,148.883,143.148,150.539z M139.116,139.199c0-1.176-0.324-2.088-0.972-2.736
		c-0.312-0.336-0.696-0.562-1.152-0.684c-0.456-0.12-1.14-0.182-2.052-0.182h-4.068v7.704h3.852c0.432,0,0.804-0.018,1.116-0.054
		s0.594-0.096,0.846-0.18s0.48-0.192,0.684-0.324c0.204-0.133,0.401-0.294,0.594-0.486
		C138.732,141.491,139.116,140.473,139.116,139.199z M140.016,150.323c0-1.392-0.438-2.46-1.314-3.204s-2.13-1.116-3.762-1.116
		h-4.068v8.388h4.068c1.08,0,1.884-0.064,2.412-0.197c0.528-0.131,0.996-0.365,1.404-0.701c0.384-0.336,0.69-0.792,0.918-1.368
		C139.902,151.547,140.016,150.947,140.016,150.323z"/>
	<path fill="#FFFFFF" d="M151.823,155.255c0,0.576-0.197,1.062-0.594,1.458s-0.869,0.594-1.422,0.594
		c-0.577,0-1.062-0.197-1.458-0.594c-0.396-0.396-0.595-0.882-0.595-1.458c0-0.552,0.198-1.026,0.595-1.422
		c0.396-0.396,0.881-0.594,1.458-0.594c0.553,0,1.025,0.196,1.422,0.594C151.626,154.229,151.823,154.703,151.823,155.255z"/>
	<path fill="#FFFFFF" d="M184.188,156.875v-10.872h-14.004v10.872h-2.953v-23.76h2.953v10.188h14.004v-10.188h2.951v23.76H184.188z"
		/>
	<path fill="#FFFFFF" d="M209.304,150.096c0,1.319-0.176,2.399-0.525,3.239c-0.348,0.84-0.934,1.601-1.754,2.28
		c-1.5,1.22-3.312,1.83-5.43,1.83c-2.142,0-3.961-0.61-5.461-1.83c-0.84-0.68-1.436-1.445-1.785-2.295
		c-0.351-0.852-0.524-1.926-0.524-3.227v-13.02h2.46v12.27c0,0.62,0.016,1.137,0.045,1.545c0.029,0.41,0.085,0.771,0.165,1.08
		c0.08,0.311,0.194,0.586,0.346,0.825c0.149,0.24,0.345,0.49,0.585,0.75c1.02,1.14,2.399,1.71,4.141,1.71
		c1.74,0,3.119-0.57,4.14-1.71c0.239-0.26,0.437-0.51,0.585-0.75c0.15-0.239,0.266-0.515,0.346-0.825
		c0.079-0.31,0.135-0.67,0.165-1.08c0.029-0.408,0.046-0.925,0.046-1.545v-12.27h2.459v13.021H209.304z"/>
	<path fill="#FFFFFF" d="M215.333,156.875v-19.8h2.461v17.729h8.85v2.069L215.333,156.875L215.333,156.875z"/>
	<path fill="#FFFFFF" d="M230.183,156.875v-19.8h2.461v17.729h8.851v2.069L230.183,156.875L230.183,156.875z"/>
</g>
</svg>
