<?xml version="1.0" encoding="utf-8"?>
<!-- Generator: Adobe Illustrator 15.0.2, SVG Export Plug-In . SVG Version: 6.00 Build 0)  -->
<!DOCTYPE svg PUBLIC "-//W3C//DTD SVG 1.1//EN" "http://www.w3.org/Graphics/SVG/1.1/DTD/svg11.dtd">
<svg version="1.1" id="Layer_1" xmlns="http://www.w3.org/2000/svg" xmlns:xlink="http://www.w3.org/1999/xlink" x="0px" y="0px"
	 width="72px" height="72px" viewBox="0 0 72 72" enable-background="new 0 0 72 72" xml:space="preserve">
<g id="Layer_1_1_">
	<g>
		<path fill="#010101" d="M28.893-4.333"/>
		<path fill="#010101" d="M56.64,17.6c-2.694-3.214-6.831-5.011-11.32-5.011c-7.783,0-14.181,4.687-14.181,15.361h7.424
			c0-5.338,3.135-7.931,6.757-7.931c3.426,0,6.205,2.937,6.205,6.405c0,3.62-2.779,6.364-2.779,6.364L31.82,49.709v7.62h28.32
			v-8.111H43.411l8.456-8.465c0,0,7.933-6.556,7.933-13.987c0-2.271-0.45-4.41-1.253-6.194l-0.021-0.017h4.05v36.778h7.928v-44.9
			H56.635V17.6"/>
	</g>
</g>
<path fill="#010101" d="M39.169,28.891h-7.926c-0.084,0.115-0.188,0.222-0.275,0.336c-2.368,2.725-5.87,4.408-9.741,4.408
	c-7.051,0-13.004-5.912-13.084-13.096c0.08-7.184,6.033-13.096,13.085-13.096c3.87,0,7.372,1.684,9.739,4.411
	c0.088,0.113,0.191,0.218,0.275,0.335h7.926c-0.122-0.276-0.277-0.555-0.433-0.707c-0.693-1.521-1.676-3.024-2.806-4.291
	l0.007-0.008L35.928,7.19c-0.036-0.041-0.073-0.08-0.11-0.121c-0.171-0.227-0.339-0.457-0.549-0.731
	c-3.931-3.869-9.119-5.774-14.275-5.711C15.95,0.67,10.936,2.613,7.154,6.472c-3.918,3.84-5.865,8.948-5.852,14.067
	c-0.013,5.12,1.934,10.229,5.852,14.068c3.804,3.881,8.856,5.828,13.93,5.849c5.127,0.039,10.275-1.87,14.183-5.716
	c0.209-0.27,0.373-0.496,0.541-0.721c0.041-0.043,0.081-0.087,0.12-0.131l0.006,0.006l-0.005-0.006
	c1.128-1.268,2.112-2.771,2.807-4.291C38.89,29.445,39.047,29.166,39.169,28.891z"/>
<g>
	<rect x="60.682" y="65.078" fill="#ECB427" width="2.463" height="5.922"/>
	<rect x="2" y="68.785" fill="#ECB427" width="47.699" height="2.215"/>
</g>
<polyline fill="#ECB427" points="26.703,63.228 26.703,65.665 48.471,60.213 70.344,65.665 70.344,63.228 48.471,57.756 
	26.703,63.228 "/>
</svg>
